<svg width="56" height="56" viewBox="0 0 56 56" fill="none" xmlns="http://www.w3.org/2000/svg">
<rect width="56" height="56" rx="28" fill="#135BEC" fill-opacity="0.1"/>
<path d="M28 40.5C26.2708 40.5 24.6458 40.1719 23.125 39.5156C21.6042 38.8594 20.2812 37.9688 19.1562 36.8438C18.0312 35.7188 17.1406 34.3958 16.4844 32.875C15.8281 31.3542 15.5 29.7292 15.5 28H18C18 29.375 18.2604 30.6719 18.7812 31.8906C19.3021 33.1094 20.0156 34.1719 20.9219 35.0781C21.8281 35.9844 22.8906 36.7031 24.1094 37.2344C25.3281 37.7656 26.625 38.0312 28 38.0312C30.7917 38.0312 33.1562 37.0625 35.0938 35.125C37.0312 33.1875 38 30.8229 38 28.0312C38 25.2396 37.0312 22.875 35.0938 20.9375C33.1562 19 30.7917 18.0312 28 18.0312C26.1458 18.0312 24.4635 18.4844 22.9531 19.3906C21.4427 20.2969 20.25 21.5 19.375 23H23V25.5H15.5V18H18V20.5C19.1458 18.9792 20.5833 17.7656 22.3125 16.8594C24.0417 15.9531 25.9375 15.5 28 15.5C29.7292 15.5 31.3542 15.8281 32.875 16.4844C34.3958 17.1406 35.7188 18.0312 36.8438 19.1562C37.9688 20.2812 38.8594 21.6042 39.5156 23.125C40.1719 24.6458 40.5 26.2708 40.5 28C40.5 29.7292 40.1719 31.3542 39.5156 32.875C38.8594 34.3958 37.9688 35.7188 36.8438 36.8438C35.7188 37.9688 34.3958 38.8594 32.875 39.5156C31.3542 40.1719 29.7292 40.5 28 40.5ZM25.5 33C25.1458 33 24.849 32.8802 24.6094 32.6406C24.3698 32.401 24.25 32.1042 24.25 31.75V28C24.25 27.6458 24.3698 27.349 24.6094 27.1094C24.849 26.8698 25.1458 26.75 25.5 26.75V25.5C25.5 24.8125 25.7448 24.224 26.2344 23.7344C26.724 23.2448 27.3125 23 28 23C28.6875 23 29.276 23.2448 29.7656 23.7344C30.2552 24.224 30.5 24.8125 30.5 25.5V26.75C30.8542 26.75 31.151 26.8698 31.3906 27.1094C31.6302 27.349 31.75 27.6458 31.75 28V31.75C31.75 32.1042 31.6302 32.401 31.3906 32.6406C31.151 32.8802 30.8542 33 30.5 33H25.5ZM26.75 26.75H29.25V25.5C29.25 25.1458 29.1302 24.849 28.8906 24.6094C28.651 24.3698 28.3542 24.25 28 24.25C27.6458 24.25 27.349 24.3698 27.1094 24.6094C26.8698 24.849 26.75 25.1458 26.75 25.5V26.75Z" fill="#135BEC"/>
</svg>
